<svg xmlns="http://www.w3.org/2000/svg" width="920" height="520" viewBox="0 0 920 520" fill="none">
  <defs>
    <linearGradient id="g1" x1="150" y1="40" x2="820" y2="520" gradientUnits="userSpaceOnUse">
      <stop stop-color="#2563EB" stop-opacity="0.95"/>
      <stop offset="1" stop-color="#22C55E" stop-opacity="0.85"/>
    </linearGradient>
    <linearGradient id="g2" x1="50" y1="30" x2="420" y2="420" gradientUnits="userSpaceOnUse">
      <stop stop-color="#FFFFFF" stop-opacity="0.70"/>
      <stop offset="1" stop-color="#FFFFFF" stop-opacity="0.15"/>
    </linearGradient>
    <filter id="blur" x="-40" y="-40" width="1000" height="640" filterUnits="userSpaceOnUse">
      <feGaussianBlur stdDeviation="20"/>
    </filter>
  </defs>
  <rect x="0" y="0" width="920" height="520" rx="28" fill="url(#g1)"/>
  <g filter="url(#blur)">
    <circle cx="160" cy="120" r="130" fill="#FFFFFF" fill-opacity="0.20"/>
    <circle cx="760" cy="120" r="170" fill="#0EA5E9" fill-opacity="0.22"/>
    <circle cx="640" cy="420" r="210" fill="#22C55E" fill-opacity="0.18"/>
  </g>
  <rect x="70" y="90" width="420" height="340" rx="24" fill="url(#g2)" stroke="#FFFFFF" stroke-opacity="0.28"/>
  <rect x="520" y="120" width="330" height="80" rx="22" fill="#FFFFFF" fill-opacity="0.22" stroke="#FFFFFF" stroke-opacity="0.28"/>
  <rect x="520" y="220" width="330" height="80" rx="22" fill="#FFFFFF" fill-opacity="0.18" stroke="#FFFFFF" stroke-opacity="0.24"/>
  <rect x="520" y="320" width="330" height="80" rx="22" fill="#FFFFFF" fill-opacity="0.14" stroke="#FFFFFF" stroke-opacity="0.22"/>

  <!-- Medical cross -->
  <g transform="translate(230 175)">
    <rect x="60" y="0" width="70" height="200" rx="18" fill="#FFFFFF" fill-opacity="0.95"/>
    <rect x="0" y="65" width="190" height="70" rx="18" fill="#FFFFFF" fill-opacity="0.95"/>
  </g>

  <!-- Lines -->
  <path d="M545 160h130" stroke="#FFFFFF" stroke-opacity="0.85" stroke-width="10" stroke-linecap="round"/>
  <path d="M545 260h210" stroke="#FFFFFF" stroke-opacity="0.75" stroke-width="10" stroke-linecap="round"/>
  <path d="M545 360h170" stroke="#FFFFFF" stroke-opacity="0.65" stroke-width="10" stroke-linecap="round"/>
</svg>

