<svg xmlns="http://www.w3.org/2000/svg" width="96" height="96" viewBox="0 0 96 96" fill="none">
  <defs>
    <linearGradient id="p" x1="18" y1="18" x2="78" y2="78" gradientUnits="userSpaceOnUse">
      <stop stop-color="#2563EB"/>
      <stop offset="1" stop-color="#0EA5E9"/>
    </linearGradient>
    <linearGradient id="g" x1="18" y1="18" x2="78" y2="78" gradientUnits="userSpaceOnUse">
      <stop stop-color="#22C55E"/>
      <stop offset="1" stop-color="#16A34A"/>
    </linearGradient>
  </defs>
  <rect x="8" y="8" width="80" height="80" rx="24" fill="#FFFFFF" opacity="0.75"/>
  <path d="M30 66c-7-7-7-19 0-26l10-10c7-7 19-7 26 0s7 19 0 26L56 66c-7 7-19 7-26 0Z" fill="url(#p)" opacity="0.85"/>
  <path d="M66 30c7 7 7 19 0 26L56 66c-7 7-19 7-26 0" stroke="#FFFFFF" stroke-opacity="0.85" stroke-width="6" stroke-linecap="round"/>
  <path d="M44 44 60 28" stroke="#FFFFFF" stroke-opacity="0.9" stroke-width="6" stroke-linecap="round"/>
  <path d="M38 52 54 36" stroke="#FFFFFF" stroke-opacity="0.55" stroke-width="6" stroke-linecap="round"/>
  <circle cx="28" cy="28" r="6" fill="url(#g)" opacity="0.7"/>
</svg>

